<svg xmlns="http://www.w3.org/2000/svg" xmlns:xlink="http://www.w3.org/1999/xlink" width="2000" zoomAndPan="magnify" viewBox="0 0 1500 1499.999933" height="2000" preserveAspectRatio="xMidYMid meet" version="1.0"><defs><g/><clipPath id="e1868e00db"><path d="M 334.585938 223.609375 L 1168.585938 223.609375 L 1168.585938 1057.609375 L 334.585938 1057.609375 Z M 334.585938 223.609375 " clip-rule="nonzero"/></clipPath><clipPath id="e455dddb21"><rect x="0" width="835" y="0" height="143"/></clipPath></defs><g clip-path="url(#e1868e00db)"><path fill="#ffffff" d="M 531.710938 1057.269531 L 334.585938 860.148438 L 554.296875 640.441406 L 334.585938 420.734375 L 531.710938 223.609375 L 751.414062 443.316406 L 971.121094 223.609375 L 1168.246094 420.734375 L 948.539062 640.441406 L 1168.246094 860.148438 L 971.121094 1057.261719 L 824.84375 910.992188 C 762.878906 849.019531 762.878906 748.191406 824.84375 686.226562 L 870.628906 640.441406 L 751.414062 521.226562 L 632.207031 640.441406 L 677.984375 686.226562 C 708.003906 716.238281 724.539062 756.152344 724.539062 798.609375 C 724.539062 841.058594 708.003906 880.96875 677.984375 910.992188 Z M 909.582031 679.394531 L 863.796875 725.175781 C 823.3125 765.667969 823.3125 831.546875 863.796875 872.039062 L 971.121094 979.359375 L 1090.332031 860.148438 Z M 412.503906 860.148438 L 531.710938 979.351562 L 639.03125 872.039062 C 658.640625 852.421875 669.449219 826.34375 669.449219 798.609375 C 669.449219 770.867188 658.640625 744.792969 639.03125 725.175781 L 593.246094 679.398438 Z M 412.503906 420.734375 L 593.246094 601.484375 L 712.460938 482.273438 L 531.710938 301.523438 Z M 790.371094 482.273438 L 909.582031 601.484375 L 1090.332031 420.734375 L 971.121094 301.523438 Z M 790.371094 482.273438 " fill-opacity="1" fill-rule="nonzero"/></g><g transform="matrix(1, 0, 0, 1, 344, 1135)"><g clip-path="url(#e455dddb21)"><g fill="#ffffff" fill-opacity="1"><g transform="translate(3.748944, 108.878553)"><g><path d="M 85.90625 -81.703125 L 85.90625 0 L 66.875 0 L 30.8125 -43.53125 L 30.8125 0 L 8.171875 0 L 8.171875 -81.703125 L 27.203125 -81.703125 L 63.265625 -38.171875 L 63.265625 -81.703125 Z M 85.90625 -81.703125 "/></g></g></g><g fill="#ffffff" fill-opacity="1"><g transform="translate(121.163288, 108.878553)"><g><path d="M 49.375 1.640625 C 40.738281 1.640625 32.972656 -0.1875 26.078125 -3.84375 C 19.191406 -7.507812 13.785156 -12.570312 9.859375 -19.03125 C 5.929688 -25.488281 3.96875 -32.765625 3.96875 -40.859375 C 3.96875 -48.941406 5.929688 -56.210938 9.859375 -62.671875 C 13.785156 -69.128906 19.191406 -74.1875 26.078125 -77.84375 C 32.972656 -81.507812 40.738281 -83.34375 49.375 -83.34375 C 58.007812 -83.34375 65.769531 -81.507812 72.65625 -77.84375 C 79.539062 -74.1875 84.945312 -69.128906 88.875 -62.671875 C 92.8125 -56.210938 94.78125 -48.941406 94.78125 -40.859375 C 94.78125 -32.765625 92.8125 -25.488281 88.875 -19.03125 C 84.945312 -12.570312 79.539062 -7.507812 72.65625 -3.84375 C 65.769531 -0.1875 58.007812 1.640625 49.375 1.640625 Z M 49.375 -17.515625 C 53.5 -17.515625 57.234375 -18.484375 60.578125 -20.421875 C 63.921875 -22.367188 66.566406 -25.113281 68.515625 -28.65625 C 70.460938 -32.195312 71.4375 -36.265625 71.4375 -40.859375 C 71.4375 -45.441406 70.460938 -49.503906 68.515625 -53.046875 C 66.566406 -56.585938 63.921875 -59.332031 60.578125 -61.28125 C 57.234375 -63.226562 53.5 -64.203125 49.375 -64.203125 C 45.25 -64.203125 41.507812 -63.226562 38.15625 -61.28125 C 34.8125 -59.332031 32.164062 -56.585938 30.21875 -53.046875 C 28.28125 -49.503906 27.3125 -45.441406 27.3125 -40.859375 C 27.3125 -36.265625 28.28125 -32.195312 30.21875 -28.65625 C 32.164062 -25.113281 34.8125 -22.367188 38.15625 -20.421875 C 41.507812 -18.484375 45.25 -17.515625 49.375 -17.515625 Z M 49.375 -17.515625 "/></g></g></g><g fill="#ffffff" fill-opacity="1"><g transform="translate(243.246159, 108.878553)"><g><path d="M 49.375 1.640625 C 40.738281 1.640625 32.972656 -0.1875 26.078125 -3.84375 C 19.191406 -7.507812 13.785156 -12.570312 9.859375 -19.03125 C 5.929688 -25.488281 3.96875 -32.765625 3.96875 -40.859375 C 3.96875 -48.941406 5.929688 -56.210938 9.859375 -62.671875 C 13.785156 -69.128906 19.191406 -74.1875 26.078125 -77.84375 C 32.972656 -81.507812 40.738281 -83.34375 49.375 -83.34375 C 58.007812 -83.34375 65.769531 -81.507812 72.65625 -77.84375 C 79.539062 -74.1875 84.945312 -69.128906 88.875 -62.671875 C 92.8125 -56.210938 94.78125 -48.941406 94.78125 -40.859375 C 94.78125 -32.765625 92.8125 -25.488281 88.875 -19.03125 C 84.945312 -12.570312 79.539062 -7.507812 72.65625 -3.84375 C 65.769531 -0.1875 58.007812 1.640625 49.375 1.640625 Z M 49.375 -17.515625 C 53.5 -17.515625 57.234375 -18.484375 60.578125 -20.421875 C 63.921875 -22.367188 66.566406 -25.113281 68.515625 -28.65625 C 70.460938 -32.195312 71.4375 -36.265625 71.4375 -40.859375 C 71.4375 -45.441406 70.460938 -49.503906 68.515625 -53.046875 C 66.566406 -56.585938 63.921875 -59.332031 60.578125 -61.28125 C 57.234375 -63.226562 53.5 -64.203125 49.375 -64.203125 C 45.25 -64.203125 41.507812 -63.226562 38.15625 -61.28125 C 34.8125 -59.332031 32.164062 -56.585938 30.21875 -53.046875 C 28.28125 -49.503906 27.3125 -45.441406 27.3125 -40.859375 C 27.3125 -36.265625 28.28125 -32.195312 30.21875 -28.65625 C 32.164062 -25.113281 34.8125 -22.367188 38.15625 -20.421875 C 41.507812 -18.484375 45.25 -17.515625 49.375 -17.515625 Z M 49.375 -17.515625 "/></g></g></g><g fill="#ffffff" fill-opacity="1"><g transform="translate(365.329029, 108.878553)"><g><path d="M 70.96875 -42.609375 C 75.632812 -40.972656 79.289062 -38.421875 81.9375 -34.953125 C 84.582031 -31.492188 85.90625 -27.3125 85.90625 -22.40625 C 85.90625 -15.25 83.023438 -9.722656 77.265625 -5.828125 C 71.503906 -1.941406 63.179688 0 52.296875 0 L 8.171875 0 L 8.171875 -81.703125 L 49.953125 -81.703125 C 60.378906 -81.703125 68.316406 -79.773438 73.765625 -75.921875 C 79.210938 -72.066406 81.9375 -66.875 81.9375 -60.34375 C 81.9375 -56.445312 80.984375 -52.960938 79.078125 -49.890625 C 77.171875 -46.816406 74.46875 -44.390625 70.96875 -42.609375 Z M 31.046875 -65.015625 L 31.046875 -49.25 L 46.921875 -49.25 C 54.703125 -49.25 58.59375 -51.894531 58.59375 -57.1875 C 58.59375 -62.40625 54.703125 -65.015625 46.921875 -65.015625 Z M 50.421875 -16.6875 C 58.515625 -16.6875 62.5625 -19.453125 62.5625 -24.984375 C 62.5625 -30.503906 58.515625 -33.265625 50.421875 -33.265625 L 31.046875 -33.265625 L 31.046875 -16.6875 Z M 50.421875 -16.6875 "/></g></g></g><g fill="#ffffff" fill-opacity="1"><g transform="translate(478.424921, 108.878553)"><g><path d="M 59.765625 0 L 42.828125 -25.328125 L 26.140625 0 L -0.234375 0 L 29.53125 -41.3125 L 1.046875 -81.703125 L 27.078125 -81.703125 L 43.421875 -58.125 L 59.53125 -81.703125 L 84.5 -81.703125 L 56.03125 -42.25 L 86.375 0 Z M 59.765625 0 "/></g></g></g><g fill="#ffffff" fill-opacity="1"><g transform="translate(587.785991, 108.878553)"><g><path d="M 5.609375 -41.78125 L 39.6875 -41.78125 L 39.6875 -24.75 L 5.609375 -24.75 Z M 5.609375 -41.78125 "/></g></g></g><g fill="#ffffff" fill-opacity="1"><g transform="translate(656.413782, 108.878553)"><g><path d="M 45.875 1.640625 C 33.726562 1.640625 24.289062 -1.664062 17.5625 -8.28125 C 10.832031 -14.894531 7.46875 -24.273438 7.46875 -36.421875 L 7.46875 -81.703125 L 30.578125 -81.703125 L 30.578125 -37.109375 C 30.578125 -24.046875 35.753906 -17.515625 46.109375 -17.515625 C 56.378906 -17.515625 61.515625 -24.046875 61.515625 -37.109375 L 61.515625 -81.703125 L 84.265625 -81.703125 L 84.265625 -36.421875 C 84.265625 -24.273438 80.898438 -14.894531 74.171875 -8.28125 C 67.441406 -1.664062 58.007812 1.640625 45.875 1.640625 Z M 45.875 1.640625 "/></g></g></g><g fill="#ffffff" fill-opacity="1"><g transform="translate(771.493798, 108.878553)"><g><path d="M 8.171875 -81.703125 L 31.28125 -81.703125 L 31.28125 0 L 8.171875 0 Z M 8.171875 -81.703125 "/></g></g></g></g></g></svg>